<mxfile host="app.diagrams.net" agent="Mozilla/5.0 (Windows NT 10.0; Win64; x64) AppleWebKit/537.36 (KHTML, like Gecko) Chrome/131.0.0.0 Safari/537.36" version="25.0.3">
  <diagram name="Page-1" id="CGDFAt8QYAYRteysORb-">
    <mxGraphModel dx="1886" dy="794" grid="1" gridSize="10" guides="1" tooltips="1" connect="1" arrows="1" fold="1" page="1" pageScale="1" pageWidth="850" pageHeight="1100" math="0" shadow="0">
      <root>
        <mxCell id="0" />
        <mxCell id="1" parent="0" />
        <mxCell id="3_TvKlc3AZeaCOvJ-CW7-4" value="" style="edgeStyle=orthogonalEdgeStyle;rounded=0;orthogonalLoop=1;jettySize=auto;html=1;" edge="1" parent="1" source="3_TvKlc3AZeaCOvJ-CW7-1">
          <mxGeometry relative="1" as="geometry">
            <mxPoint x="425" y="90" as="targetPoint" />
          </mxGeometry>
        </mxCell>
        <mxCell id="3_TvKlc3AZeaCOvJ-CW7-1" value="" style="ellipse;html=1;shape=startState;fillColor=#000000;strokeColor=#ff0000;" vertex="1" parent="1">
          <mxGeometry x="410" y="40" width="30" height="30" as="geometry" />
        </mxCell>
        <mxCell id="3_TvKlc3AZeaCOvJ-CW7-8" value="" style="edgeStyle=orthogonalEdgeStyle;rounded=0;orthogonalLoop=1;jettySize=auto;html=1;" edge="1" parent="1" source="3_TvKlc3AZeaCOvJ-CW7-5">
          <mxGeometry relative="1" as="geometry">
            <mxPoint x="425.5" y="160" as="targetPoint" />
          </mxGeometry>
        </mxCell>
        <mxCell id="3_TvKlc3AZeaCOvJ-CW7-5" value="login" style="rounded=1;whiteSpace=wrap;html=1;arcSize=40;fontColor=#000000;fillColor=#ffffc0;strokeColor=#ff0000;" vertex="1" parent="1">
          <mxGeometry x="358" y="90" width="135" height="30" as="geometry" />
        </mxCell>
        <mxCell id="3_TvKlc3AZeaCOvJ-CW7-12" value="" style="edgeStyle=orthogonalEdgeStyle;rounded=0;orthogonalLoop=1;jettySize=auto;html=1;" edge="1" parent="1" source="3_TvKlc3AZeaCOvJ-CW7-9" target="3_TvKlc3AZeaCOvJ-CW7-11">
          <mxGeometry relative="1" as="geometry" />
        </mxCell>
        <mxCell id="3_TvKlc3AZeaCOvJ-CW7-9" value="Authentication" style="rhombus;whiteSpace=wrap;html=1;fillColor=#ffffc0;strokeColor=#ff0000;fontColor=#000000;rounded=1;arcSize=40;" vertex="1" parent="1">
          <mxGeometry x="378.25" y="157" width="94.5" height="70" as="geometry" />
        </mxCell>
        <mxCell id="3_TvKlc3AZeaCOvJ-CW7-14" value="" style="edgeStyle=orthogonalEdgeStyle;rounded=0;orthogonalLoop=1;jettySize=auto;html=1;" edge="1" parent="1" source="3_TvKlc3AZeaCOvJ-CW7-11" target="3_TvKlc3AZeaCOvJ-CW7-13">
          <mxGeometry relative="1" as="geometry" />
        </mxCell>
        <mxCell id="3_TvKlc3AZeaCOvJ-CW7-11" value="fill the deatils" style="whiteSpace=wrap;html=1;fillColor=#ffffc0;strokeColor=#ff0000;fontColor=#000000;rounded=1;arcSize=40;" vertex="1" parent="1">
          <mxGeometry x="354.12" y="250" width="142.75" height="28" as="geometry" />
        </mxCell>
        <mxCell id="3_TvKlc3AZeaCOvJ-CW7-16" value="" style="edgeStyle=orthogonalEdgeStyle;rounded=0;orthogonalLoop=1;jettySize=auto;html=1;" edge="1" parent="1" source="3_TvKlc3AZeaCOvJ-CW7-13" target="3_TvKlc3AZeaCOvJ-CW7-15">
          <mxGeometry relative="1" as="geometry" />
        </mxCell>
        <mxCell id="3_TvKlc3AZeaCOvJ-CW7-13" value="verfication" style="rhombus;whiteSpace=wrap;html=1;fillColor=#ffffc0;strokeColor=#ff0000;fontColor=#000000;rounded=1;arcSize=40;" vertex="1" parent="1">
          <mxGeometry x="380" y="310" width="92.75" height="58" as="geometry" />
        </mxCell>
        <mxCell id="3_TvKlc3AZeaCOvJ-CW7-15" value="pay ticket bill" style="whiteSpace=wrap;html=1;fillColor=#ffffc0;strokeColor=#ff0000;fontColor=#000000;rounded=1;arcSize=40;" vertex="1" parent="1">
          <mxGeometry x="360.44" y="390" width="131.88" height="33" as="geometry" />
        </mxCell>
        <mxCell id="3_TvKlc3AZeaCOvJ-CW7-18" value="" style="html=1;points=[];perimeter=orthogonalPerimeter;fillColor=strokeColor;rotation=90;" vertex="1" parent="1">
          <mxGeometry x="423.88" y="393" width="5" height="130" as="geometry" />
        </mxCell>
        <mxCell id="3_TvKlc3AZeaCOvJ-CW7-19" value="" style="edgeStyle=orthogonalEdgeStyle;rounded=0;orthogonalLoop=1;jettySize=auto;html=1;" edge="1" parent="1">
          <mxGeometry relative="1" as="geometry">
            <mxPoint x="390" y="462" as="sourcePoint" />
            <mxPoint x="390" y="494" as="targetPoint" />
          </mxGeometry>
        </mxCell>
        <mxCell id="3_TvKlc3AZeaCOvJ-CW7-20" value="" style="edgeStyle=orthogonalEdgeStyle;rounded=0;orthogonalLoop=1;jettySize=auto;html=1;" edge="1" parent="1">
          <mxGeometry relative="1" as="geometry">
            <mxPoint x="455" y="463" as="sourcePoint" />
            <mxPoint x="455" y="495" as="targetPoint" />
          </mxGeometry>
        </mxCell>
        <mxCell id="3_TvKlc3AZeaCOvJ-CW7-21" value="" style="edgeStyle=orthogonalEdgeStyle;rounded=0;orthogonalLoop=1;jettySize=auto;html=1;" edge="1" parent="1">
          <mxGeometry relative="1" as="geometry">
            <mxPoint x="425" y="424" as="sourcePoint" />
            <mxPoint x="425" y="456" as="targetPoint" />
          </mxGeometry>
        </mxCell>
        <mxCell id="3_TvKlc3AZeaCOvJ-CW7-22" value="&lt;div&gt;gpay&lt;/div&gt;" style="whiteSpace=wrap;html=1;fillColor=#ffffc0;strokeColor=#ff0000;fontColor=#000000;rounded=1;arcSize=40;" vertex="1" parent="1">
          <mxGeometry x="349" y="493" width="73.88" height="30" as="geometry" />
        </mxCell>
        <mxCell id="3_TvKlc3AZeaCOvJ-CW7-23" value="ppay" style="whiteSpace=wrap;html=1;fillColor=#ffffc0;strokeColor=#ff0000;fontColor=#000000;rounded=1;arcSize=40;" vertex="1" parent="1">
          <mxGeometry x="425.88" y="495" width="73.88" height="30" as="geometry" />
        </mxCell>
        <mxCell id="3_TvKlc3AZeaCOvJ-CW7-24" value="" style="edgeStyle=orthogonalEdgeStyle;rounded=0;orthogonalLoop=1;jettySize=auto;html=1;" edge="1" parent="1">
          <mxGeometry relative="1" as="geometry">
            <mxPoint x="461" y="525" as="sourcePoint" />
            <mxPoint x="461" y="557" as="targetPoint" />
          </mxGeometry>
        </mxCell>
        <mxCell id="3_TvKlc3AZeaCOvJ-CW7-25" value="" style="edgeStyle=orthogonalEdgeStyle;rounded=0;orthogonalLoop=1;jettySize=auto;html=1;" edge="1" parent="1">
          <mxGeometry relative="1" as="geometry">
            <mxPoint x="388" y="525" as="sourcePoint" />
            <mxPoint x="388" y="557" as="targetPoint" />
          </mxGeometry>
        </mxCell>
        <mxCell id="3_TvKlc3AZeaCOvJ-CW7-26" value="" style="html=1;points=[];perimeter=orthogonalPerimeter;fillColor=strokeColor;rotation=90;" vertex="1" parent="1">
          <mxGeometry x="425.88" y="494" width="5" height="130" as="geometry" />
        </mxCell>
        <mxCell id="3_TvKlc3AZeaCOvJ-CW7-27" value="" style="edgeStyle=orthogonalEdgeStyle;rounded=0;orthogonalLoop=1;jettySize=auto;html=1;" edge="1" parent="1">
          <mxGeometry relative="1" as="geometry">
            <mxPoint x="430" y="562" as="sourcePoint" />
            <mxPoint x="430" y="594" as="targetPoint" />
          </mxGeometry>
        </mxCell>
        <mxCell id="3_TvKlc3AZeaCOvJ-CW7-28" value="get password" style="whiteSpace=wrap;html=1;fillColor=#ffffc0;strokeColor=#ff0000;fontColor=#000000;rounded=1;arcSize=40;" vertex="1" parent="1">
          <mxGeometry x="357.01" y="594" width="142.75" height="28" as="geometry" />
        </mxCell>
        <mxCell id="3_TvKlc3AZeaCOvJ-CW7-29" value="" style="edgeStyle=orthogonalEdgeStyle;rounded=0;orthogonalLoop=1;jettySize=auto;html=1;" edge="1" parent="1" target="3_TvKlc3AZeaCOvJ-CW7-40">
          <mxGeometry relative="1" as="geometry">
            <mxPoint x="430" y="753" as="sourcePoint" />
            <mxPoint x="430" y="775" as="targetPoint" />
          </mxGeometry>
        </mxCell>
        <mxCell id="3_TvKlc3AZeaCOvJ-CW7-30" value="" style="html=1;points=[];perimeter=orthogonalPerimeter;fillColor=strokeColor;rotation=90;" vertex="1" parent="1">
          <mxGeometry x="426.88" y="584" width="5" height="130" as="geometry" />
        </mxCell>
        <mxCell id="3_TvKlc3AZeaCOvJ-CW7-31" value="" style="edgeStyle=orthogonalEdgeStyle;rounded=0;orthogonalLoop=1;jettySize=auto;html=1;" edge="1" parent="1">
          <mxGeometry relative="1" as="geometry">
            <mxPoint x="465" y="650" as="sourcePoint" />
            <mxPoint x="465" y="682" as="targetPoint" />
          </mxGeometry>
        </mxCell>
        <mxCell id="3_TvKlc3AZeaCOvJ-CW7-32" value="" style="edgeStyle=orthogonalEdgeStyle;rounded=0;orthogonalLoop=1;jettySize=auto;html=1;" edge="1" parent="1">
          <mxGeometry relative="1" as="geometry">
            <mxPoint x="392" y="650" as="sourcePoint" />
            <mxPoint x="392" y="682" as="targetPoint" />
          </mxGeometry>
        </mxCell>
        <mxCell id="3_TvKlc3AZeaCOvJ-CW7-33" value="print&amp;nbsp;" style="whiteSpace=wrap;html=1;fillColor=#ffffc0;strokeColor=#ff0000;fontColor=#000000;rounded=1;arcSize=40;" vertex="1" parent="1">
          <mxGeometry x="354" y="682" width="73.88" height="30" as="geometry" />
        </mxCell>
        <mxCell id="3_TvKlc3AZeaCOvJ-CW7-34" value="email" style="whiteSpace=wrap;html=1;fillColor=#ffffc0;strokeColor=#ff0000;fontColor=#000000;rounded=1;arcSize=40;" vertex="1" parent="1">
          <mxGeometry x="430.88" y="684" width="73.88" height="30" as="geometry" />
        </mxCell>
        <mxCell id="3_TvKlc3AZeaCOvJ-CW7-37" value="" style="edgeStyle=orthogonalEdgeStyle;rounded=0;orthogonalLoop=1;jettySize=auto;html=1;" edge="1" parent="1">
          <mxGeometry relative="1" as="geometry">
            <mxPoint x="465" y="714" as="sourcePoint" />
            <mxPoint x="465" y="746" as="targetPoint" />
          </mxGeometry>
        </mxCell>
        <mxCell id="3_TvKlc3AZeaCOvJ-CW7-38" value="" style="edgeStyle=orthogonalEdgeStyle;rounded=0;orthogonalLoop=1;jettySize=auto;html=1;" edge="1" parent="1">
          <mxGeometry relative="1" as="geometry">
            <mxPoint x="392" y="714" as="sourcePoint" />
            <mxPoint x="392" y="746" as="targetPoint" />
          </mxGeometry>
        </mxCell>
        <mxCell id="3_TvKlc3AZeaCOvJ-CW7-39" value="" style="html=1;points=[];perimeter=orthogonalPerimeter;fillColor=strokeColor;rotation=90;" vertex="1" parent="1">
          <mxGeometry x="429.88" y="683" width="5" height="130" as="geometry" />
        </mxCell>
        <mxCell id="3_TvKlc3AZeaCOvJ-CW7-40" value="" style="ellipse;html=1;shape=endState;fillColor=#000000;strokeColor=#ff0000;" vertex="1" parent="1">
          <mxGeometry x="414.38" y="783" width="30" height="30" as="geometry" />
        </mxCell>
        <mxCell id="3_TvKlc3AZeaCOvJ-CW7-41" value="" style="endArrow=classic;html=1;rounded=0;exitX=0.863;exitY=0.517;exitDx=0;exitDy=0;entryX=0.633;entryY=0.333;entryDx=0;entryDy=0;exitPerimeter=0;entryPerimeter=0;" edge="1" parent="1">
          <mxGeometry width="50" height="50" relative="1" as="geometry">
            <mxPoint x="467.04325000000017" y="341.9860000000001" as="sourcePoint" />
            <mxPoint x="435.9899999999998" y="51.99000000000001" as="targetPoint" />
            <Array as="points">
              <mxPoint x="607" y="342" />
              <mxPoint x="607" y="52" />
            </Array>
          </mxGeometry>
        </mxCell>
        <mxCell id="3_TvKlc3AZeaCOvJ-CW7-42" value="" style="endArrow=classic;html=1;rounded=0;entryX=1;entryY=0.5;entryDx=0;entryDy=0;exitX=0.907;exitY=0.571;exitDx=0;exitDy=0;exitPerimeter=0;" edge="1" parent="1" source="3_TvKlc3AZeaCOvJ-CW7-9">
          <mxGeometry width="50" height="50" relative="1" as="geometry">
            <mxPoint x="465" y="190" as="sourcePoint" />
            <mxPoint x="493" y="104" as="targetPoint" />
            <Array as="points">
              <mxPoint x="560" y="199" />
              <mxPoint x="560" y="104" />
            </Array>
          </mxGeometry>
        </mxCell>
        <mxCell id="3_TvKlc3AZeaCOvJ-CW7-43" value="[no]" style="text;html=1;align=center;verticalAlign=middle;resizable=0;points=[];autosize=1;strokeColor=none;fillColor=none;" vertex="1" parent="1">
          <mxGeometry x="470" y="168" width="40" height="30" as="geometry" />
        </mxCell>
        <mxCell id="3_TvKlc3AZeaCOvJ-CW7-44" value="[yes]" style="text;html=1;align=center;verticalAlign=middle;resizable=0;points=[];autosize=1;strokeColor=none;fillColor=none;" vertex="1" parent="1">
          <mxGeometry x="425" y="218" width="50" height="30" as="geometry" />
        </mxCell>
        <mxCell id="3_TvKlc3AZeaCOvJ-CW7-45" value="[unsuccessfull]" style="text;html=1;align=center;verticalAlign=middle;resizable=0;points=[];autosize=1;strokeColor=none;fillColor=none;" vertex="1" parent="1">
          <mxGeometry x="460" y="318" width="100" height="30" as="geometry" />
        </mxCell>
        <mxCell id="3_TvKlc3AZeaCOvJ-CW7-46" value="[successful]" style="text;html=1;align=center;verticalAlign=middle;resizable=0;points=[];autosize=1;strokeColor=none;fillColor=none;" vertex="1" parent="1">
          <mxGeometry x="420" y="360" width="90" height="30" as="geometry" />
        </mxCell>
      </root>
    </mxGraphModel>
  </diagram>
</mxfile>
